<?xml version="1.0" standalone="no"?>
<!DOCTYPE svg PUBLIC "-//W3C//DTD SVG 20010904//EN"
 "http://www.w3.org/TR/2001/REC-SVG-20010904/DTD/svg10.dtd">
<svg version="1.0" xmlns="http://www.w3.org/2000/svg"
 width="512.000000pt" height="512.000000pt" viewBox="0 0 512.000000 512.000000"
 preserveAspectRatio="xMidYMid meet">
<metadata>
Created by potrace 1.11, written by Peter Selinger 2001-2013
</metadata>
<g transform="translate(0.000000,512.000000) scale(0.100000,-0.100000)"
fill="#000000" stroke="none">
<path d="M2405 5052 c-2 -2 -32 -5 -67 -8 -65 -4 -98 -7 -158 -17 -19 -4 -52
-9 -73 -12 -21 -3 -47 -9 -56 -15 -10 -5 -21 -7 -24 -3 -3 3 -14 2 -24 -2 -10
-4 -25 -9 -33 -11 -44 -8 -75 -16 -84 -22 -6 -3 -17 -7 -26 -8 -43 -6 -75 -16
-78 -24 -2 -5 -9 -7 -17 -4 -7 3 -16 0 -20 -5 -3 -6 -11 -9 -16 -6 -5 4 -9 1
-9 -5 0 -6 -3 -9 -7 -7 -5 3 -19 0 -33 -6 -14 -5 -31 -11 -39 -13 -8 -1 -17
-8 -21 -14 -4 -7 -10 -11 -14 -11 -3 1 -7 1 -8 0 -2 0 -12 -2 -22 -4 -10 -2
-22 -9 -26 -15 -4 -7 -9 -10 -12 -8 -6 4 -111 -44 -119 -55 -3 -5 -10 -9 -15
-9 -20 -1 -54 -18 -54 -28 0 -5 -3 -10 -7 -9 -16 2 -53 -14 -53 -22 0 -5 -5
-9 -11 -9 -7 0 -18 -8 -26 -17 -10 -12 -12 -13 -8 -3 4 9 -2 6 -12 -5 -10 -11
-25 -21 -33 -23 -19 -4 -140 -94 -140 -104 0 -4 -3 -7 -7 -6 -12 4 -54 -28
-46 -35 3 -4 0 -7 -7 -7 -8 0 -23 -10 -35 -23 -11 -13 -16 -16 -11 -7 5 8 -8
-2 -28 -22 -20 -21 -36 -35 -36 -32 0 12 -249 -249 -250 -261 0 -3 -8 -13 -17
-23 -31 -33 -63 -72 -58 -72 3 0 -18 -28 -45 -62 -28 -34 -50 -66 -50 -70 0
-5 -13 -27 -30 -49 -16 -23 -27 -46 -23 -52 3 -5 1 -7 -5 -3 -10 6 -23 -17
-21 -38 0 -5 -3 -12 -8 -15 -4 -3 -15 -15 -23 -25 -13 -18 -13 -19 0 -12 8 4
6 0 -4 -8 -11 -9 -16 -16 -10 -16 5 0 3 -4 -4 -9 -7 -4 -14 -14 -15 -22 -2 -8
-7 -21 -12 -29 -25 -39 -34 -61 -22 -54 7 4 4 -2 -6 -13 -9 -11 -17 -24 -17
-29 0 -5 -7 -22 -15 -38 -8 -15 -12 -32 -9 -37 3 -5 1 -9 -4 -9 -6 0 -15 -13
-21 -30 -5 -16 -7 -30 -4 -30 3 0 0 -6 -6 -13 -6 -8 -8 -17 -4 -20 3 -4 2 -7
-4 -7 -6 0 -14 -17 -19 -37 -9 -43 -10 -51 -14 -58 -1 -3 -4 -9 -5 -15 -1 -5
-3 -11 -5 -12 -2 -3 -6 -18 -14 -56 -3 -13 -7 -31 -10 -40 -3 -9 -7 -28 -10
-42 -3 -14 -7 -36 -10 -50 -36 -166 -48 -295 -49 -495 0 -162 8 -276 28 -400
3 -16 7 -41 9 -55 2 -14 4 -25 6 -25 1 0 3 -9 5 -20 3 -23 16 -83 29 -130 1
-5 8 -36 16 -68 7 -31 17 -57 21 -57 5 0 6 -7 3 -15 -4 -8 -1 -15 5 -15 6 0 8
-6 5 -14 -3 -8 0 -17 5 -21 6 -3 9 -11 6 -16 -4 -5 -2 -9 2 -9 5 0 9 -9 10
-20 1 -11 9 -35 17 -52 9 -17 16 -37 16 -45 0 -7 4 -13 9 -13 5 0 8 -6 8 -12
-1 -18 49 -125 63 -133 6 -3 8 -11 5 -16 -4 -5 -1 -9 5 -9 6 0 8 -5 4 -11 -3
-6 0 -15 7 -20 8 -4 15 -13 15 -19 1 -5 2 -15 3 -21 0 -5 6 -7 13 -3 6 4 8 3
4 -4 -3 -6 1 -17 9 -26 9 -8 15 -18 14 -22 -3 -9 65 -114 74 -114 5 0 6 -4 3
-9 -3 -5 6 -21 19 -35 14 -15 25 -31 25 -37 0 -5 5 -9 10 -9 6 0 10 -6 10 -13
0 -7 8 -20 18 -28 9 -9 26 -29 37 -45 11 -15 34 -41 50 -58 17 -16 23 -26 15
-21 -8 4 -2 -6 14 -23 16 -17 34 -29 39 -25 6 3 7 1 3 -5 -3 -6 5 -19 19 -30
14 -11 25 -24 25 -30 0 -6 4 -12 9 -14 5 -2 30 -22 54 -45 25 -23 48 -39 52
-35 5 4 5 2 2 -4 -4 -6 6 -21 22 -33 16 -13 46 -38 67 -56 21 -19 41 -32 46
-29 4 3 8 -2 8 -10 0 -9 6 -16 14 -16 8 0 16 -4 18 -9 2 -5 54 -43 116 -84 61
-41 109 -70 106 -64 -4 7 3 2 15 -11 12 -12 26 -20 32 -17 5 4 9 1 9 -4 0 -6
7 -11 15 -11 8 0 15 -5 15 -11 0 -5 4 -8 9 -4 5 3 12 1 16 -4 9 -16 67 -41 78
-34 6 4 7 1 2 -7 -5 -8 -3 -11 6 -8 8 3 20 -2 27 -11 11 -13 12 -13 6 -1 -6
12 -4 12 12 -1 17 -14 51 -31 64 -30 3 0 15 -7 27 -14 12 -8 30 -16 40 -18 10
-2 28 -8 40 -15 12 -7 26 -11 30 -10 4 1 25 -6 46 -15 21 -9 48 -18 60 -20 12
-2 29 -7 37 -10 8 -4 26 -9 40 -11 14 -3 25 -5 25 -6 0 -2 12 -5 50 -13 11 -2
27 -7 36 -11 9 -4 20 -6 25 -5 5 1 11 0 14 -1 3 -1 12 -3 20 -5 14 -3 33 -6
132 -21 18 -3 56 -8 83 -11 96 -11 570 -6 570 7 0 1 16 3 35 5 54 6 103 13
130 19 14 3 36 8 50 11 81 17 102 22 110 26 3 1 10 3 15 4 19 3 126 36 153 47
15 6 31 10 36 9 5 -1 18 6 29 16 14 13 18 14 12 3 -6 -12 -5 -13 6 -2 7 6 21
12 31 12 10 0 18 4 18 10 0 5 3 9 8 9 7 -1 11 0 30 6 4 2 17 6 30 10 12 4 22
12 22 17 0 5 5 6 10 3 6 -3 10 -1 10 4 0 6 3 10 8 10 22 -4 42 2 37 11 -3 6 1
7 9 4 9 -3 16 -2 16 4 0 6 14 13 30 17 17 4 30 11 30 16 0 5 7 9 15 9 8 0 15
5 15 11 0 5 3 8 8 6 4 -2 21 4 37 14 17 11 38 22 48 25 9 4 17 10 17 15 0 5 6
9 13 9 7 0 23 9 35 20 12 11 24 20 27 20 10 0 78 52 98 74 10 12 15 14 11 6
-8 -17 38 20 75 60 13 14 20 18 15 10 -11 -21 73 55 193 175 56 57 99 105 96
109 -4 3 2 6 12 6 10 0 16 3 12 6 -3 4 4 15 16 26 12 11 15 16 7 12 -8 -3 -1
6 16 22 32 30 124 147 124 159 0 3 12 22 26 41 15 19 23 34 19 34 -3 0 0 6 7
14 19 19 43 56 43 64 0 4 10 21 22 38 12 17 20 34 16 38 -3 3 -1 6 5 6 10 0
28 38 24 53 -1 4 2 7 7 7 7 0 34 53 46 90 2 7 34 81 45 105 23 50 38 95 33 95
-3 0 -1 6 5 13 5 6 13 28 17 47 4 19 11 40 17 46 5 7 8 16 6 20 -1 5 3 25 10
44 6 19 13 46 16 60 3 14 8 36 11 50 3 14 8 39 11 55 6 34 11 59 18 96 3 14 8
45 10 70 3 24 5 44 6 44 5 0 12 175 12 290 0 133 -5 213 -18 315 -3 25 -5 52
-5 60 -1 8 -3 22 -6 30 -3 8 -7 22 -8 30 -8 57 -20 115 -35 170 -7 25 -14 52
-15 60 -2 8 -4 16 -5 18 -2 1 -4 7 -5 12 -1 6 -4 12 -5 15 -1 3 -3 8 -4 13 -1
4 -6 23 -10 42 -5 19 -12 41 -17 50 -12 24 -22 54 -21 63 1 4 -3 7 -10 7 -6 0
-9 3 -6 6 6 5 -5 37 -42 119 -10 22 -18 43 -19 48 0 12 -35 71 -46 79 -5 4 -7
8 -2 8 4 0 -4 18 -18 40 -14 22 -25 43 -25 48 0 5 -9 17 -20 27 -11 10 -17 22
-14 26 3 5 0 9 -6 9 -6 0 -8 5 -5 10 3 6 1 10 -4 10 -6 0 -11 7 -11 15 0 8 -4
15 -9 15 -5 0 -14 13 -20 28 -7 16 -24 42 -39 58 -15 17 -34 43 -42 58 -8 15
-33 48 -55 72 -23 24 -40 44 -38 44 3 0 -12 17 -31 38 -20 20 -36 41 -36 45 0
5 -4 5 -10 2 -5 -3 -10 0 -10 7 0 7 -15 27 -32 43 -17 17 -28 24 -23 16 5 -9
4 -12 -3 -7 -7 4 -12 12 -12 17 0 12 -46 59 -52 53 -3 -2 -11 7 -18 21 -7 14
-17 25 -22 25 -5 0 -19 10 -32 23 -37 35 -71 62 -73 57 -1 -3 -8 2 -15 11 -21
24 -105 89 -117 89 -6 0 -11 5 -11 10 0 6 -7 10 -15 10 -8 0 -15 5 -15 10 0 6
-7 10 -15 10 -8 0 -15 4 -15 9 0 5 -8 11 -17 15 -10 3 -31 15 -48 26 -54 35
-65 41 -65 33 0 -4 -6 1 -13 11 -7 9 -19 18 -27 19 -8 1 -26 10 -39 19 -13 10
-28 15 -33 12 -4 -3 -8 -1 -8 3 0 8 -55 33 -73 32 -4 0 -15 7 -23 16 -14 13
-37 20 -48 13 -2 -2 -13 5 -24 15 -12 11 -26 16 -31 12 -6 -3 -11 -1 -11 4 0
6 -8 11 -18 11 -10 0 -22 3 -26 8 -4 4 -11 7 -14 8 -4 0 -15 4 -24 8 -9 4 -22
9 -30 10 -7 1 -33 9 -58 16 -25 8 -49 14 -55 15 -5 0 -16 4 -22 8 -7 5 -17 6
-22 2 -5 -3 -12 -1 -16 4 -3 5 -13 10 -23 10 -16 0 -57 8 -57 11 0 1 -9 3 -20
5 -11 2 -36 7 -55 11 -19 4 -48 8 -65 10 -16 2 -50 6 -75 9 -25 3 -70 8 -100
11 -69 6 -360 11 -365 6z"/>
</g>
</svg>
